<svg aria-hidden="true" style="position: absolute; width: 0; height: 0; overflow: hidden;" version="1.1" xmlns="http://www.w3.org/2000/svg" xmlns:xlink="http://www.w3.org/1999/xlink">
<defs>
<symbol id="icon-logo" viewBox="0 0 69 32">
<path fill="#fff" style="fill: currentColor" d="M30.305 0.001c0.522-0.007 1.080 0.021 1.633 0.073 0.172 0.016 0.332 0.033 0.474 0.051 0.086 0.011 0.148 0.019 0.182 0.024 0.161 0.023 0.28 0.161 0.28 0.323v0.979c0 0.18-0.146 0.326-0.326 0.326h1.305c0.124 0 0.237 0.070 0.292 0.18l0.041 0.082c0.038-0.737 0.609-1.172 1.299-1.241 0.721 0 1.305 0.584 1.305 1.305-0.017 0.093-0.001 0.064-0.020 0.096-0.008 0.043 0.001 0.023-0.032 0.057-0.021 0.037-0.002 0.006-0.075 0.076 0.542-0.175 0.258-0.090 0.85-0.251 3.113-0.776 6.666-0.468 10.215 1.701 0.097 0.059 0.156 0.165 0.156 0.279v0.326h0.653v1.958h-3.589v-0.653h-0.533c-0.282 0.857-1.077 1.221-1.914 1.305-0.928-0.055-1.553-0.445-1.914-1.306h-0.533c-0.329 0-0.532-0.257-0.743-0.702-0.058-0.122-0.112-0.252-0.159-0.381l-0.003-0.007-0.087-0.022c-0.135-0.031-0.267-0.053-0.387-0.061-0.189-0.012-0.314 0.013-0.348 0.046-0.003 0.003-0.003 0.099 0.053 0.266 0.030 0.092 0.073 0.192 0.126 0.297 0.042 0.084 0.087 0.164 0.132 0.239 0.027 0.044 0.047 0.076 0.057 0.091 0.145 0.217-0.011 0.507-0.271 0.507l-2.475-0-0.068 0.068c-0.122 0.122-0.122 0.122-0.163 0.163-0.057 0.057-0.132 0.090-0.213 0.095-0.030 0.002-0.088 0.005-0.17 0.008-0.137 0.006-0.294 0.012-0.469 0.018-1.375 0.045-2.859 0.038-4.256-0.055-1.565-0.106-2.836-0.312-3.722-0.644-0.443-0.166-0.742-0.166-0.93-0.085-0.031 0.013-0.042 0.021-0.036 0.016l-0.071-0.075c-0.304 0.981-1.144 1.425-2.111 1.522-1.261 0-2.284-1.023-2.284-2.284l0.015-0.145h-0.341c-0.18 0-0.326-0.146-0.326-0.326v-3.118c0-0.212 0.199-0.368 0.406-0.317l0.9 0.225v-0.235c0-0.18 0.146-0.326 0.326-0.326h2.937c0.18 0 0.326 0.146 0.326 0.326v0.653c0 0.051-0.012 0.101-0.035 0.146l-0.090 0.18h0.339l0.008-0.006c0.078-0.060 0.168-0.127 0.267-0.198 0.283-0.205 0.586-0.409 0.901-0.6 0.37-0.225 0.73-0.417 1.073-0.565 0.253-0.11 0.494-0.195 0.721-0.252 0.391-0.098 0.872-0.146 1.426-0.153zM42.5 3.408c-0.811 0-1.468 0.657-1.468 1.468s0.657 1.468 1.468 1.468 1.468-0.657 1.468-1.468c0-0.811-0.657-1.468-1.468-1.468zM42.5 3.734c0.631 0 1.142 0.511 1.142 1.142s-0.511 1.142-1.142 1.142c-0.631 0-1.142-0.511-1.142-1.142s0.511-1.142 1.142-1.142zM42.5 4.387c-0.27 0-0.489 0.219-0.489 0.489s0.219 0.489 0.489 0.489 0.489-0.219 0.489-0.489c0-0.271-0.219-0.489-0.489-0.489zM23.738 3.082c-0.901 0-1.631 0.73-1.631 1.631s0.731 1.631 1.631 1.631 1.631-0.731 1.631-1.631c0-0.901-0.731-1.631-1.631-1.631zM23.738 3.408c0.721 0 1.305 0.584 1.305 1.305s-0.584 1.305-1.305 1.305-1.305-0.584-1.305-1.305c0-0.721 0.584-1.305 1.305-1.305zM23.738 4.061c-0.361 0-0.653 0.292-0.653 0.653s0.292 0.653 0.653 0.653 0.653-0.292 0.653-0.653c0-0.361-0.292-0.653-0.653-0.653zM47.884 5.040h-2.284v0.653h2.284v-0.653zM30.314 0.653c-0.508 0.007-0.942 0.051-1.276 0.134-0.19 0.047-0.398 0.12-0.62 0.217-0.313 0.135-0.647 0.314-0.993 0.524-0.298 0.182-0.588 0.377-0.857 0.572-0.094 0.068-0.179 0.131-0.253 0.188-0.044 0.034-0.074 0.057-0.088 0.069-0.058 0.046-0.13 0.072-0.204 0.072h-0.979c-0.242 0-0.4-0.256-0.292-0.472l0.292-0.584v-0.249h-2.284v0.326c0 0.212-0.199 0.368-0.406 0.317l-0.9-0.225v2.374h0.188c0.303-0.963 1.149-1.391 2.096-1.486 1.261 0 2.284 1.023 2.284 2.284l-0.014 0.14c0.831 0.034 0.465-0.037 1.107 0.155 0.812 0.305 2.030 0.502 3.537 0.604 1.371 0.093 2.835 0.099 4.19 0.054 0.172-0.006 0.327-0.012 0.461-0.018l0.040-0.002c0.051-0.051 0.026-0.026 0.074-0.074 0.122-0.122 0.122-0.122 0.163-0.163 0.061-0.061 0.144-0.095 0.231-0.095l2.060-0c-0.069-0.147-0.029-0.057-0.112-0.275-0.127-0.38-0.127-0.702 0.105-0.934 0.286-0.213 0.1-0.107 0.596-0.237l0.256 0.002c0.159 0.010 0.324 0.038 0.491 0.076 0.129 0.030 0.232 0.060 0.296 0.081 0.099 0.033 0.177 0.112 0.208 0.211 0.009 0.027 0.026 0.079 0.051 0.146 0.041 0.112 0.087 0.224 0.136 0.328 0.059 0.125 0.118 0.226 0.17 0.292 0.030 0.035 0.018 0.024 0.033 0.038l0.293-0-0.016-0.163c0-1.171 0.95-2.121 2.121-2.121s2.121 0.95 2.121 2.121l-0.016 0.163h0.343v-0.653h2.284v-0.138c-3.132-1.857-6.018-2.247-9.561-1.535-0.304 0.076-0.574 0.157-0.805 0.238-0.136 0.048-0.227 0.084-0.271 0.103-0.041 0.018-0.086 0.027-0.131 0.027h-2.25c-0.054 0.011-0.016 0.003-0.115 0.024-0.12 0.025-0.257 0.052-0.408 0.082-0.431 0.085-0.889 0.17-1.357 0.249-0.421 0.071-0.83 0.134-1.218 0.188-1.352 0.185-2.345 0.236-2.888 0.1-0.472-0.118-1.092-0.295-1.145-0.303-0.070-0.011-0.13-0.013-0.407-0.013-0.18 0-0.326-0.146-0.326-0.326s0.146-0.326 0.326-0.326c0.319 0 0.392 0.002 0.511 0.021 0.099 0.016 0.763 0.205 1.2 0.315 0.431 0.108 1.376 0.060 2.641-0.113 0.381-0.052 0.783-0.115 1.198-0.185 0.461-0.078 0.915-0.162 1.34-0.246l0.133-0.027-0.046-0.092h-1.43c-0.18 0-0.326-0.146-0.326-0.326v-0.653c0-0.18 0.146-0.326 0.326-0.326v-0.364c-0.185-0.021-0.070-0.009-0.345-0.036-0.532-0.050-1.067-0.077-1.563-0.070zM35.485 1.45c-0.361 0-0.653 0.292-0.653 0.653 0 0.091 0.019 0.179 0.054 0.26l0.014 0.066h1.237c-0.18 0-0.326-0.146-0.326-0.326 0.015-0.131 0.068-0.274 0.224-0.306-0.357-0.357-0.159-0.268-0.55-0.347z"></path>
<path fill="#fff" style="fill: currentColor" d="M1.725 14.464v15.495c0 0.201 0.345 0.259 0.345 0v-7.733h5.289c0.287 0 0.287-0.402 0-0.402h-5.289v-7.129h6.439c0.201 0 0.259-0.374 0-0.374h-6.612c-0.086 0-0.172 0.029-0.172 0.144zM3.536 31.713h-3.306c-0.144 0-0.23-0.115-0.23-0.259v-18.456c0-0.144 0.086-0.259 0.23-0.259h9.774c0.144 0 0.259 0.115 0.259 0.259v3.076c0 0.144-0.115 0.259-0.259 0.259h-6.209v3.91h4.83c0.144 0 0.23 0.115 0.23 0.259v3.133c0 0.144-0.086 0.259-0.23 0.259h-4.83v7.56c0 0.144-0.115 0.259-0.259 0.259zM14.172 15.844l2.070-2.932c0.115-0.144 0.23-0.144 0.287-0.144h3.363c0.144 0 0.23 0.115 0.23 0.259v18.427c0 0.144-0.086 0.259-0.23 0.259h-3.277c-0.144 0-0.259-0.115-0.259-0.259v-13.971l-1.782 1.897c-0.144 0.144-0.431 0.058-0.431-0.172v-3.22c0-0.086 0.029-0.115 0.029-0.144zM15.61 16.275c-0.172 0.172 0.115 0.374 0.259 0.23l1.811-1.897c0.144-0.144 0.402-0.029 0.402 0.172v15.15c0 0.23 0.374 0.23 0.374 0v-15.15c0-0.46-0.661-0.862-1.006-0.431zM33.030 12.998c0-0.144 0.115-0.259 0.259-0.259h3.306c0.144 0 0.259 0.115 0.259 0.259v18.456c0 0.144-0.115 0.259-0.259 0.259h-3.191c-0.115 0-0.23-0.058-0.259-0.144l-4.197-9.458v9.343c0 0.144-0.115 0.259-0.259 0.259h-3.277c-0.144 0-0.23-0.115-0.23-0.259v-18.456c0-0.144 0.086-0.259 0.23-0.259h3.392c0.115 0 0.172 0.086 0.201 0.144l4.025 9.285v-9.17zM35.1 29.988v-15.523c0-0.201-0.374-0.259-0.374 0v14.776l-7.503-14.833c-0.086-0.115-0.316-0.115-0.316 0.057v15.495c0 0.259 0.345 0.259 0.345 0v-14.747l7.474 14.805c0.115 0.201 0.374 0.144 0.374-0.029zM43.983 14.464v15.495c0 0.201 0.345 0.259 0.345 0v-7.733h5.289c0.287 0 0.287-0.402 0-0.402h-5.289v-7.129h6.439c0.201 0 0.259-0.374 0-0.374h-6.612c-0.086 0-0.172 0.029-0.172 0.144zM45.794 31.713h-3.306c-0.144 0-0.23-0.115-0.23-0.259v-18.456c0-0.144 0.086-0.259 0.23-0.259h9.774c0.144 0 0.259 0.115 0.259 0.259v3.076c0 0.144-0.115 0.259-0.259 0.259h-6.209v3.91h4.83c0.144 0 0.23 0.115 0.23 0.259v3.133c0 0.144-0.086 0.259-0.23 0.259h-4.83v7.56c0 0.144-0.115 0.259-0.259 0.259zM62.783 12.481c2.472 0 4.197 0.546 5.289 1.725 0.862 0.949 1.265 2.3 1.265 4.226v7.56c0 1.984-0.402 3.363-1.265 4.283-1.121 1.15-2.817 1.725-5.289 1.725-2.558 0-4.226-0.575-5.318-1.725-0.834-0.92-1.294-2.3-1.294-4.283v-7.56c0-1.926 0.46-3.277 1.294-4.255 1.121-1.15 2.817-1.696 5.318-1.696zM65.514 25.129v-5.749c0-2.53-1.351-3.047-2.587-3.047h-0.345c-1.84 0-2.558 1.179-2.558 3.047v5.749c0 2.53 1.351 3.076 2.558 3.076h0.345c1.84 0 2.558-1.236 2.587-3.076zM57.983 18.633v7.129c0 1.351 0.345 2.472 1.15 3.306 0.747 0.747 1.897 1.15 3.306 1.15h0.747c2.702 0 4.456-1.725 4.456-4.456v-7.129c0-2.932-1.552-4.513-4.456-4.513h-0.747c-2.932 0-4.456 1.581-4.456 4.513zM63.186 29.844h-0.747c-1.351 0-2.357-0.345-3.076-1.064s-1.092-1.725-1.092-3.018v-7.129c0-2.731 1.466-4.168 4.168-4.168h0.747c2.731 0 4.082 1.409 4.082 4.168v7.129c0 1.207-0.374 2.3-1.15 3.047-0.747 0.632-1.754 1.035-2.932 1.035z"></path>
</symbol>
</defs>
</svg>
